# xmcd
#
# Track frame offsets:
#	150
#	18615
#	37473
#	57745
#	73896
#	89961
#	108121
#	127834
#	142868
#	161681
#
# Disc length: 2335 seconds
#
# Revision: 1
# Processed by: cddbd v1.5.1PL2 Copyright (c) Steve Scherf et al.
# Submitted via: audiograbber 1.83.01
#
DISCID=97091d0a
DTITLE=Jerry Bauguess - Million miles from nowhere
DYEAR=2002
DGENRE=Country
TTITLE0=Million miles from nowhe
TTITLE1=Everyone hears the music
TTITLE2=Back streets
TTITLE3=Freedom train
TTITLE4=Haven't found my rainbow
TTITLE5=That's what love is
TTITLE6=Crazy in love
TTITLE7=Living every moment, loving every day
TTITLE8=Just drive
TTITLE9=Loser's hall of fame
EXTD=
EXTT0=
EXTT1=
EXTT2=
EXTT3=
EXTT4=
EXTT5=
EXTT6=
EXTT7=
EXTT8=
EXTT9=
PLAYORDER=
